<svg width="22" height="16" viewBox="0 0 22 16" fill="none" xmlns="http://www.w3.org/2000/svg">
<path d="M4.99989 7H8.99989M6.99989 5V9M13.9999 8H14.0099M16.9999 6H17.0099M9.44885 1H12.5509C15.1758 1 16.4883 1 17.5184 1.49743C18.4254 1.9354 19.179 2.63709 19.6805 3.51059C20.2501 4.5027 20.3436 5.81181 20.5306 8.43002L20.7766 11.8745C20.8973 13.5634 19.5597 15 17.8664 15C17.0005 15 16.1794 14.6154 15.6251 13.9502L15.2499 13.5C14.9068 13.0882 14.7351 12.8823 14.5398 12.7159C14.1302 12.3672 13.6344 12.1349 13.1043 12.0436C12.8514 12 12.5834 12 12.0473 12H9.95245C9.41642 12 9.14841 12 8.89553 12.0436C8.36539 12.1349 7.86957 12.3672 7.46 12.7159C7.26463 12.8823 7.09305 13.0882 6.74989 13.5L6.37473 13.9502C5.8204 14.6154 4.99924 15 4.13335 15C2.44013 15 1.1025 13.5634 1.22314 11.8745L1.46918 8.43002C1.65619 5.81181 1.7497 4.5027 2.31926 3.51059C2.82074 2.63709 3.57433 1.9354 4.48135 1.49743C5.51151 1 6.82396 1 9.44885 1Z" stroke="black" stroke-width="2" stroke-linecap="round" stroke-linejoin="round"/>
</svg>
